<svg width="25" height="24" viewBox="0 0 25 24" fill="none" xmlns="http://www.w3.org/2000/svg">
<path d="M5.5 22C4.95 22 4.47917 21.8042 4.0875 21.4125C3.69583 21.0208 3.5 20.55 3.5 20V6C3.5 5.45 3.69583 4.97917 4.0875 4.5875C4.47917 4.19583 4.95 4 5.5 4H6.5V3C6.5 2.71667 6.59583 2.47917 6.7875 2.2875C6.97917 2.09583 7.21667 2 7.5 2C7.78333 2 8.02083 2.09583 8.2125 2.2875C8.40417 2.47917 8.5 2.71667 8.5 3V4H16.5V3C16.5 2.71667 16.5958 2.47917 16.7875 2.2875C16.9792 2.09583 17.2167 2 17.5 2C17.7833 2 18.0208 2.09583 18.2125 2.2875C18.4042 2.47917 18.5 2.71667 18.5 3V4H19.5C20.05 4 20.5208 4.19583 20.9125 4.5875C21.3042 4.97917 21.5 5.45 21.5 6V20C21.5 20.55 21.3042 21.0208 20.9125 21.4125C20.5208 21.8042 20.05 22 19.5 22H5.5ZM5.5 20H19.5V10H5.5V20Z" fill="#2B2B2F"/>
</svg>
