<svg width="14" height="15" viewBox="0 0 14 15" fill="none" xmlns="http://www.w3.org/2000/svg">
<path d="M6.994 1.76685C3.774 1.76685 1.1665 4.38018 1.1665 7.60018C1.1665 10.8202 3.774 13.4335 6.994 13.4335C10.2198 13.4335 12.8332 10.8202 12.8332 7.60018C12.8332 4.38018 10.2198 1.76685 6.994 1.76685ZM6.99984 12.2668C4.4215 12.2668 2.33317 10.1785 2.33317 7.60018C2.33317 5.02185 4.4215 2.93351 6.99984 2.93351C9.57817 2.93351 11.6665 5.02185 11.6665 7.60018C11.6665 10.1785 9.57817 12.2668 6.99984 12.2668ZM7.2915 4.68351H6.4165V8.18351L9.479 10.021L9.9165 9.30351L7.2915 7.74601V4.68351Z" fill="#514B40"/>
</svg>
