<svg width="18" height="18" viewBox="0 0 18 18" fill="none" xmlns="http://www.w3.org/2000/svg">
<path d="M3.75 15V13.5H14.25V15H3.75ZM3.75 12.375L2.79375 6.35625C2.76875 6.35625 2.74063 6.35938 2.70938 6.36563C2.67813 6.37188 2.65 6.375 2.625 6.375C2.3125 6.375 2.04688 6.26562 1.82812 6.04688C1.60938 5.82812 1.5 5.5625 1.5 5.25C1.5 4.9375 1.60938 4.67188 1.82812 4.45312C2.04688 4.23438 2.3125 4.125 2.625 4.125C2.9375 4.125 3.20313 4.23438 3.42188 4.45312C3.64062 4.67188 3.75 4.9375 3.75 5.25C3.75 5.3375 3.74063 5.41875 3.72188 5.49375C3.70312 5.56875 3.68125 5.6375 3.65625 5.7L6 6.75L8.34375 3.54375C8.20625 3.44375 8.09375 3.3125 8.00625 3.15C7.91875 2.9875 7.875 2.8125 7.875 2.625C7.875 2.3125 7.98438 2.04688 8.20313 1.82812C8.42188 1.60938 8.6875 1.5 9 1.5C9.3125 1.5 9.57812 1.60938 9.79688 1.82812C10.0156 2.04688 10.125 2.3125 10.125 2.625C10.125 2.8125 10.0813 2.9875 9.99375 3.15C9.90625 3.3125 9.79375 3.44375 9.65625 3.54375L12 6.75L14.3438 5.7C14.3188 5.6375 14.2969 5.56875 14.2781 5.49375C14.2594 5.41875 14.25 5.3375 14.25 5.25C14.25 4.9375 14.3594 4.67188 14.5781 4.45312C14.7969 4.23438 15.0625 4.125 15.375 4.125C15.6875 4.125 15.9531 4.23438 16.1719 4.45312C16.3906 4.67188 16.5 4.9375 16.5 5.25C16.5 5.5625 16.3906 5.82812 16.1719 6.04688C15.9531 6.26562 15.6875 6.375 15.375 6.375C15.35 6.375 15.3219 6.37188 15.2906 6.36563C15.2594 6.35938 15.2313 6.35625 15.2063 6.35625L14.25 12.375H3.75ZM5.025 10.875H12.975L13.4625 7.74375L11.4938 8.60625L9 5.175L6.50625 8.60625L4.5375 7.74375L5.025 10.875Z" fill="#FFAB00"/>
</svg>
