<svg width="25" height="24" viewBox="0 0 25 24" fill="none" xmlns="http://www.w3.org/2000/svg">
<path d="M14.5 9C14.2167 9 13.9792 8.90417 13.7875 8.7125C13.5958 8.52083 13.5 8.28333 13.5 8V4C13.5 3.71667 13.5958 3.47917 13.7875 3.2875C13.9792 3.09583 14.2167 3 14.5 3H20.5C20.7833 3 21.0208 3.09583 21.2125 3.2875C21.4042 3.47917 21.5 3.71667 21.5 4V8C21.5 8.28333 21.4042 8.52083 21.2125 8.7125C21.0208 8.90417 20.7833 9 20.5 9H14.5ZM4.5 13C4.21667 13 3.97917 12.9042 3.7875 12.7125C3.59583 12.5208 3.5 12.2833 3.5 12V4C3.5 3.71667 3.59583 3.47917 3.7875 3.2875C3.97917 3.09583 4.21667 3 4.5 3H10.5C10.7833 3 11.0208 3.09583 11.2125 3.2875C11.4042 3.47917 11.5 3.71667 11.5 4V12C11.5 12.2833 11.4042 12.5208 11.2125 12.7125C11.0208 12.9042 10.7833 13 10.5 13H4.5ZM14.5 21C14.2167 21 13.9792 20.9042 13.7875 20.7125C13.5958 20.5208 13.5 20.2833 13.5 20V12C13.5 11.7167 13.5958 11.4792 13.7875 11.2875C13.9792 11.0958 14.2167 11 14.5 11H20.5C20.7833 11 21.0208 11.0958 21.2125 11.2875C21.4042 11.4792 21.5 11.7167 21.5 12V20C21.5 20.2833 21.4042 20.5208 21.2125 20.7125C21.0208 20.9042 20.7833 21 20.5 21H14.5ZM4.5 21C4.21667 21 3.97917 20.9042 3.7875 20.7125C3.59583 20.5208 3.5 20.2833 3.5 20V16C3.5 15.7167 3.59583 15.4792 3.7875 15.2875C3.97917 15.0958 4.21667 15 4.5 15H10.5C10.7833 15 11.0208 15.0958 11.2125 15.2875C11.4042 15.4792 11.5 15.7167 11.5 16V20C11.5 20.2833 11.4042 20.5208 11.2125 20.7125C11.0208 20.9042 10.7833 21 10.5 21H4.5Z" fill="#2B2B2F"/>
</svg>
