<svg width="25" height="24" viewBox="0 0 25 24" fill="none" xmlns="http://www.w3.org/2000/svg">
<path d="M6.5 18L4.2 20.3C3.88333 20.6167 3.52083 20.6875 3.1125 20.5125C2.70417 20.3375 2.5 20.025 2.5 19.575V4C2.5 3.45 2.69583 2.97917 3.0875 2.5875C3.47917 2.19583 3.95 2 4.5 2H20.5C21.05 2 21.5208 2.19583 21.9125 2.5875C22.3042 2.97917 22.5 3.45 22.5 4V16C22.5 16.55 22.3042 17.0208 21.9125 17.4125C21.5208 17.8042 21.05 18 20.5 18H6.5ZM12.5 15C12.7833 15 13.0208 14.9042 13.2125 14.7125C13.4042 14.5208 13.5 14.2833 13.5 14C13.5 13.7167 13.4042 13.4792 13.2125 13.2875C13.0208 13.0958 12.7833 13 12.5 13C12.2167 13 11.9792 13.0958 11.7875 13.2875C11.5958 13.4792 11.5 13.7167 11.5 14C11.5 14.2833 11.5958 14.5208 11.7875 14.7125C11.9792 14.9042 12.2167 15 12.5 15ZM12.5 11C12.7833 11 13.0208 10.9042 13.2125 10.7125C13.4042 10.5208 13.5 10.2833 13.5 10V6C13.5 5.71667 13.4042 5.47917 13.2125 5.2875C13.0208 5.09583 12.7833 5 12.5 5C12.2167 5 11.9792 5.09583 11.7875 5.2875C11.5958 5.47917 11.5 5.71667 11.5 6V10C11.5 10.2833 11.5958 10.5208 11.7875 10.7125C11.9792 10.9042 12.2167 11 12.5 11Z" fill="#2B2B2F"/>
</svg>
