<svg width="25" height="24" viewBox="0 0 25 24" fill="none" xmlns="http://www.w3.org/2000/svg">
<path d="M9.49995 16L8.67495 19.275C8.62495 19.4917 8.51661 19.6667 8.34995 19.8C8.18328 19.9333 7.98328 20 7.74995 20C7.43328 20 7.17495 19.875 6.97495 19.625C6.77495 19.375 6.71661 19.1 6.79995 18.8L7.49995 16H4.77495C4.44161 16 4.17495 15.8708 3.97495 15.6125C3.77495 15.3542 3.71661 15.0667 3.79995 14.75C3.84995 14.5167 3.96661 14.3333 4.14995 14.2C4.33328 14.0667 4.54162 14 4.77495 14H7.99995L8.99995 10H6.27495C5.94162 10 5.67495 9.87083 5.47495 9.6125C5.27495 9.35417 5.21661 9.06667 5.29995 8.75C5.34995 8.51667 5.46661 8.33333 5.64995 8.2C5.83328 8.06667 6.04162 8 6.27495 8H9.49995L10.3249 4.725C10.3749 4.50833 10.4833 4.33333 10.6499 4.2C10.8166 4.06667 11.0166 4 11.2499 4C11.5666 4 11.8249 4.125 12.0249 4.375C12.2249 4.625 12.2833 4.9 12.1999 5.2L11.4999 8H15.4999L16.3249 4.725C16.3749 4.50833 16.4833 4.33333 16.6499 4.2C16.8166 4.06667 17.0166 4 17.2499 4C17.5666 4 17.8249 4.125 18.0249 4.375C18.2249 4.625 18.2833 4.9 18.1999 5.2L17.4999 8H20.2249C20.5583 8 20.8249 8.12917 21.0249 8.3875C21.2249 8.64583 21.2833 8.93333 21.1999 9.25C21.1499 9.48333 21.0333 9.66667 20.8499 9.8C20.6666 9.93333 20.4583 10 20.2249 10H16.9999L15.9999 14H18.7249C19.0583 14 19.3249 14.1292 19.5249 14.3875C19.7249 14.6458 19.7833 14.9333 19.6999 15.25C19.6499 15.4833 19.5333 15.6667 19.3499 15.8C19.1666 15.9333 18.9583 16 18.7249 16H15.4999L14.6749 19.275C14.6249 19.4917 14.5166 19.6667 14.3499 19.8C14.1833 19.9333 13.9833 20 13.7499 20C13.4333 20 13.1749 19.875 12.9749 19.625C12.7749 19.375 12.7166 19.1 12.7999 18.8L13.4999 16H9.49995ZM9.99995 14H13.9999L14.9999 10H10.9999L9.99995 14Z" fill="#2B2B2F"/>
</svg>
