<svg width="27" height="26" viewBox="0 0 27 26" fill="none" xmlns="http://www.w3.org/2000/svg">
<path d="M13.5005 3.54541C10.9328 3.54541 10.6106 3.55664 9.60215 3.60253C8.59567 3.64862 7.90866 3.80797 7.30752 4.04177C6.68571 4.28326 6.15824 4.60629 5.63274 5.132C5.10685 5.65752 4.78383 6.185 4.54156 6.80664C4.30717 7.40799 4.14763 8.09521 4.10233 9.10133C4.05723 10.1098 4.04541 10.4323 4.04541 13C4.04541 15.5677 4.05683 15.8889 4.10253 16.8974C4.14882 17.9039 4.30816 18.5909 4.54176 19.1921C4.78343 19.8139 5.10645 20.3414 5.63215 20.8669C6.15745 21.3928 6.68492 21.7167 7.30634 21.9581C7.90787 22.1919 8.59508 22.3513 9.60136 22.3974C10.6098 22.4433 10.9319 22.4545 13.4993 22.4545C16.0671 22.4545 16.3883 22.4433 17.3968 22.3974C18.4033 22.3513 19.0911 22.1919 19.6926 21.9581C20.3142 21.7167 20.8409 21.3928 21.3662 20.8669C21.8921 20.3414 22.2151 19.8139 22.4574 19.1923C22.6898 18.5909 22.8493 17.9037 22.8966 16.8976C22.9419 15.8891 22.9537 15.5677 22.9537 13C22.9537 10.4323 22.9419 10.11 22.8966 9.10153C22.8493 8.09502 22.6898 7.40799 22.4574 6.80683C22.2151 6.185 21.8921 5.65752 21.3662 5.132C20.8403 4.60609 20.3144 4.28306 19.692 4.04177C19.0893 3.80797 18.4019 3.64862 17.3954 3.60253C16.387 3.55664 16.0659 3.54541 13.4975 3.54541H13.5005ZM12.6523 5.2492C12.9041 5.2488 13.1849 5.2492 13.5005 5.2492C16.0247 5.2492 16.3239 5.25826 17.3208 5.30356C18.2426 5.34571 18.7428 5.49974 19.0761 5.62915C19.5173 5.80052 19.8319 6.00536 20.1626 6.33627C20.4935 6.66718 20.6983 6.98233 20.8701 7.42355C20.9995 7.75642 21.1537 8.25673 21.1956 9.17855C21.2409 10.1752 21.2508 10.4746 21.2508 12.9978C21.2508 15.521 21.2409 15.8204 21.1956 16.817C21.1535 17.7388 20.9995 18.2392 20.8701 18.572C20.6987 19.0132 20.4935 19.3274 20.1626 19.6581C19.8317 19.989 19.5175 20.1939 19.0761 20.3652C18.7432 20.4952 18.2426 20.6489 17.3208 20.691C16.3241 20.7363 16.0247 20.7462 13.5005 20.7462C10.976 20.7462 10.6768 20.7363 9.68015 20.691C8.75836 20.6485 8.25807 20.4945 7.92461 20.365C7.48341 20.1937 7.16827 19.9888 6.83737 19.6579C6.50647 19.327 6.30163 19.0127 6.12988 18.5712C6.00047 18.2384 5.84625 17.7381 5.8043 16.8162C5.75899 15.8196 5.74993 15.5202 5.74993 12.9954C5.74993 10.4707 5.75899 10.1728 5.8043 9.17618C5.84645 8.25436 6.00047 7.75406 6.12988 7.42079C6.30124 6.97958 6.50647 6.66442 6.83737 6.33352C7.16827 6.00261 7.48341 5.79776 7.92461 5.626C8.25787 5.496 8.75836 5.34236 9.68015 5.30002C10.5523 5.26062 10.8903 5.2488 12.6523 5.24683V5.2492ZM18.5471 6.81905C17.9207 6.81905 17.4125 7.32664 17.4125 7.9532C17.4125 8.57956 17.9207 9.08774 18.5471 9.08774C19.1734 9.08774 19.6816 8.57956 19.6816 7.9532C19.6816 7.32683 19.1734 6.81865 18.5471 6.81865V6.81905ZM13.5005 8.14465C10.8192 8.14465 8.6453 10.3186 8.6453 13C8.6453 15.6813 10.8192 17.8543 13.5005 17.8543C16.1817 17.8543 18.3548 15.6813 18.3548 13C18.3548 10.3186 16.1815 8.14465 13.5003 8.14465H13.5005ZM13.5005 9.84844C15.2408 9.84844 16.6519 11.2593 16.6519 13C16.6519 14.7404 15.2408 16.1515 13.5005 16.1515C11.7599 16.1515 10.349 14.7404 10.349 13C10.349 11.2593 11.7599 9.84844 13.5005 9.84844Z" fill="url(#paint0_radial_983_3174)"/>
<path d="M13.5005 3.54541C10.9328 3.54541 10.6106 3.55664 9.60215 3.60253C8.59567 3.64862 7.90866 3.80797 7.30752 4.04177C6.68571 4.28326 6.15824 4.60629 5.63274 5.132C5.10685 5.65752 4.78383 6.185 4.54156 6.80664C4.30717 7.40799 4.14763 8.09521 4.10233 9.10133C4.05723 10.1098 4.04541 10.4323 4.04541 13C4.04541 15.5677 4.05683 15.8889 4.10253 16.8974C4.14882 17.9039 4.30816 18.5909 4.54176 19.1921C4.78343 19.8139 5.10645 20.3414 5.63215 20.8669C6.15745 21.3928 6.68492 21.7167 7.30634 21.9581C7.90787 22.1919 8.59508 22.3513 9.60136 22.3974C10.6098 22.4433 10.9319 22.4545 13.4993 22.4545C16.0671 22.4545 16.3883 22.4433 17.3968 22.3974C18.4033 22.3513 19.0911 22.1919 19.6926 21.9581C20.3142 21.7167 20.8409 21.3928 21.3662 20.8669C21.8921 20.3414 22.2151 19.8139 22.4574 19.1923C22.6898 18.5909 22.8493 17.9037 22.8966 16.8976C22.9419 15.8891 22.9537 15.5677 22.9537 13C22.9537 10.4323 22.9419 10.11 22.8966 9.10153C22.8493 8.09502 22.6898 7.40799 22.4574 6.80683C22.2151 6.185 21.8921 5.65752 21.3662 5.132C20.8403 4.60609 20.3144 4.28306 19.692 4.04177C19.0893 3.80797 18.4019 3.64862 17.3954 3.60253C16.387 3.55664 16.0659 3.54541 13.4975 3.54541H13.5005ZM12.6523 5.2492C12.9041 5.2488 13.1849 5.2492 13.5005 5.2492C16.0247 5.2492 16.3239 5.25826 17.3208 5.30356C18.2426 5.34571 18.7428 5.49974 19.0761 5.62915C19.5173 5.80052 19.8319 6.00536 20.1626 6.33627C20.4935 6.66718 20.6983 6.98233 20.8701 7.42355C20.9995 7.75642 21.1537 8.25673 21.1956 9.17855C21.2409 10.1752 21.2508 10.4746 21.2508 12.9978C21.2508 15.521 21.2409 15.8204 21.1956 16.817C21.1535 17.7388 20.9995 18.2392 20.8701 18.572C20.6987 19.0132 20.4935 19.3274 20.1626 19.6581C19.8317 19.989 19.5175 20.1939 19.0761 20.3652C18.7432 20.4952 18.2426 20.6489 17.3208 20.691C16.3241 20.7363 16.0247 20.7462 13.5005 20.7462C10.976 20.7462 10.6768 20.7363 9.68015 20.691C8.75836 20.6485 8.25807 20.4945 7.92461 20.365C7.48341 20.1937 7.16827 19.9888 6.83737 19.6579C6.50647 19.327 6.30163 19.0127 6.12988 18.5712C6.00047 18.2384 5.84625 17.7381 5.8043 16.8162C5.75899 15.8196 5.74993 15.5202 5.74993 12.9954C5.74993 10.4707 5.75899 10.1728 5.8043 9.17618C5.84645 8.25436 6.00047 7.75406 6.12988 7.42079C6.30124 6.97958 6.50647 6.66442 6.83737 6.33352C7.16827 6.00261 7.48341 5.79776 7.92461 5.626C8.25787 5.496 8.75836 5.34236 9.68015 5.30002C10.5523 5.26062 10.8903 5.2488 12.6523 5.24683V5.2492ZM18.5471 6.81905C17.9207 6.81905 17.4125 7.32664 17.4125 7.9532C17.4125 8.57956 17.9207 9.08774 18.5471 9.08774C19.1734 9.08774 19.6816 8.57956 19.6816 7.9532C19.6816 7.32683 19.1734 6.81865 18.5471 6.81865V6.81905ZM13.5005 8.14465C10.8192 8.14465 8.6453 10.3186 8.6453 13C8.6453 15.6813 10.8192 17.8543 13.5005 17.8543C16.1817 17.8543 18.3548 15.6813 18.3548 13C18.3548 10.3186 16.1815 8.14465 13.5003 8.14465H13.5005ZM13.5005 9.84844C15.2408 9.84844 16.6519 11.2593 16.6519 13C16.6519 14.7404 15.2408 16.1515 13.5005 16.1515C11.7599 16.1515 10.349 14.7404 10.349 13C10.349 11.2593 11.7599 9.84844 13.5005 9.84844Z" fill="url(#paint1_radial_983_3174)"/>
<defs>
<radialGradient id="paint0_radial_983_3174" cx="0" cy="0" r="1" gradientUnits="userSpaceOnUse" gradientTransform="translate(9.06796 23.9109) rotate(-90) scale(18.7403 17.4292)">
<stop stop-color="#FFDD55"/>
<stop offset="0.1" stop-color="#FFDD55"/>
<stop offset="0.5" stop-color="#FF543E"/>
<stop offset="1" stop-color="#C837AB"/>
</radialGradient>
<radialGradient id="paint1_radial_983_3174" cx="0" cy="0" r="1" gradientUnits="userSpaceOnUse" gradientTransform="translate(0.878166 4.90759) rotate(78.6811) scale(8.37698 34.529)">
<stop stop-color="#3771C8"/>
<stop offset="0.128" stop-color="#3771C8"/>
<stop offset="1" stop-color="#6600FF" stop-opacity="0"/>
</radialGradient>
</defs>
</svg>
