<svg width="25" height="24" viewBox="0 0 25 24" fill="none" xmlns="http://www.w3.org/2000/svg">
<path d="M11.325 22C10.875 22 10.4875 21.85 10.1625 21.55C9.83748 21.25 9.64165 20.8833 9.57498 20.45L9.34998 18.8C9.13331 18.7167 8.92915 18.6167 8.73748 18.5C8.54581 18.3833 8.35831 18.2583 8.17498 18.125L6.62498 18.775C6.20831 18.9583 5.79165 18.975 5.37498 18.825C4.95831 18.675 4.63331 18.4083 4.39998 18.025L3.22498 15.975C2.99165 15.5917 2.92498 15.1833 3.02498 14.75C3.12498 14.3167 3.34998 13.9583 3.69998 13.675L5.02498 12.675C5.00831 12.5583 4.99998 12.4458 4.99998 12.3375V11.6625C4.99998 11.5542 5.00831 11.4417 5.02498 11.325L3.69998 10.325C3.34998 10.0417 3.12498 9.68333 3.02498 9.25C2.92498 8.81667 2.99165 8.40833 3.22498 8.025L4.39998 5.975C4.63331 5.59167 4.95831 5.325 5.37498 5.175C5.79165 5.025 6.20831 5.04167 6.62498 5.225L8.17498 5.875C8.35831 5.74167 8.54998 5.61667 8.74998 5.5C8.94998 5.38333 9.14998 5.28333 9.34998 5.2L9.57498 3.55C9.64165 3.11667 9.83748 2.75 10.1625 2.45C10.4875 2.15 10.875 2 11.325 2H13.675C14.125 2 14.5125 2.15 14.8375 2.45C15.1625 2.75 15.3583 3.11667 15.425 3.55L15.65 5.2C15.8666 5.28333 16.0708 5.38333 16.2625 5.5C16.4541 5.61667 16.6416 5.74167 16.825 5.875L18.375 5.225C18.7916 5.04167 19.2083 5.025 19.625 5.175C20.0416 5.325 20.3666 5.59167 20.6 5.975L21.775 8.025C22.0083 8.40833 22.075 8.81667 21.975 9.25C21.875 9.68333 21.65 10.0417 21.3 10.325L19.975 11.325C19.9916 11.4417 20 11.5542 20 11.6625V12.3375C20 12.4458 19.9833 12.5583 19.95 12.675L21.275 13.675C21.625 13.9583 21.85 14.3167 21.95 14.75C22.05 15.1833 21.9833 15.5917 21.75 15.975L20.55 18.025C20.3166 18.4083 19.9916 18.675 19.575 18.825C19.1583 18.975 18.7416 18.9583 18.325 18.775L16.825 18.125C16.6416 18.2583 16.45 18.3833 16.25 18.5C16.05 18.6167 15.85 18.7167 15.65 18.8L15.425 20.45C15.3583 20.8833 15.1625 21.25 14.8375 21.55C14.5125 21.85 14.125 22 13.675 22H11.325ZM12.55 15.5C13.5166 15.5 14.3416 15.1583 15.025 14.475C15.7083 13.7917 16.05 12.9667 16.05 12C16.05 11.0333 15.7083 10.2083 15.025 9.525C14.3416 8.84167 13.5166 8.5 12.55 8.5C11.5666 8.5 10.7375 8.84167 10.0625 9.525C9.38748 10.2083 9.04998 11.0333 9.04998 12C9.04998 12.9667 9.38748 13.7917 10.0625 14.475C10.7375 15.1583 11.5666 15.5 12.55 15.5Z" fill="#2B2B2F"/>
</svg>
