<svg width="25" height="24" viewBox="0 0 25 24" fill="none" xmlns="http://www.w3.org/2000/svg">
<path d="M11 7H7C6.58333 7 6.22917 6.85417 5.9375 6.5625C5.64583 6.27083 5.5 5.91667 5.5 5.5C5.5 5.08333 5.64583 4.72917 5.9375 4.4375C6.22917 4.14583 6.58333 4 7 4H18C18.4167 4 18.7708 4.14583 19.0625 4.4375C19.3542 4.72917 19.5 5.08333 19.5 5.5C19.5 5.91667 19.3542 6.27083 19.0625 6.5625C18.7708 6.85417 18.4167 7 18 7H14V18.5C14 18.9167 13.8542 19.2708 13.5625 19.5625C13.2708 19.8542 12.9167 20 12.5 20C12.0833 20 11.7292 19.8542 11.4375 19.5625C11.1458 19.2708 11 18.9167 11 18.5V7Z" fill="#2B2B2F"/>
</svg>
