<svg width="25" height="24" viewBox="0 0 25 24" fill="none" xmlns="http://www.w3.org/2000/svg">
<path d="M5.7 16L8.35 3.75C8.4 3.51667 8.5125 3.33333 8.6875 3.2C8.8625 3.06667 9.06667 3 9.3 3H9.725C9.95833 3 10.1625 3.07083 10.3375 3.2125C10.5125 3.35417 10.625 3.54167 10.675 3.775L13.55 17.3L15.325 9.75C15.375 9.53333 15.4875 9.35417 15.6625 9.2125C15.8375 9.07083 16.0417 9 16.275 9H16.75C16.9833 9 17.1833 9.06667 17.35 9.2C17.5167 9.33333 17.625 9.50833 17.675 9.725L19.3 16H21.5C21.7833 16 22.0208 16.0958 22.2125 16.2875C22.4042 16.4792 22.5 16.7167 22.5 17C22.5 17.2833 22.4042 17.5208 22.2125 17.7125C22.0208 17.9042 21.7833 18 21.5 18H18.525C18.2917 18 18.0875 17.9333 17.9125 17.8C17.7375 17.6667 17.6167 17.4833 17.55 17.25L16.55 13.3L14.675 21.25C14.625 21.4833 14.5125 21.6667 14.3375 21.8C14.1625 21.9333 13.9583 22 13.725 22H13.3C13.0667 22 12.8583 21.9292 12.675 21.7875C12.4917 21.6458 12.375 21.4583 12.325 21.225L9.5 7.95L7.475 17.225C7.425 17.4583 7.30833 17.6458 7.125 17.7875C6.94167 17.9292 6.73333 18 6.5 18H3.5C3.21667 18 2.97917 17.9042 2.7875 17.7125C2.59583 17.5208 2.5 17.2833 2.5 17C2.5 16.7167 2.59583 16.4792 2.7875 16.2875C2.97917 16.0958 3.21667 16 3.5 16H5.7Z" fill="#2B2B2F"/>
</svg>
