<svg width="26" height="26" viewBox="0 0 26 26" fill="none" xmlns="http://www.w3.org/2000/svg">
<path d="M23.5169 7.48148C23.2639 6.54182 22.523 5.80094 21.5834 5.54795C19.8667 5.07812 13 5.07812 13 5.07812C13 5.07812 6.13322 5.07812 4.41654 5.52988C3.49495 5.78287 2.73599 6.54182 2.48301 7.48148C2.03125 9.19816 2.03125 12.758 2.03125 12.758C2.03125 12.758 2.03125 16.336 2.48301 18.0346C2.73599 18.9742 3.47688 19.7151 4.41654 19.9681C6.15129 20.4379 13 20.4379 13 20.4379C13 20.4379 19.8667 20.4379 21.5834 19.9862C22.523 19.7332 23.2639 18.9923 23.5169 18.0526C23.9687 16.336 23.9687 12.7761 23.9687 12.7761C23.9687 12.7761 23.9867 9.19816 23.5169 7.48148Z" fill="#FF0000"/>
<path d="M10.8135 15.9214L16.5237 12.6326L10.8135 9.34375V15.9214Z" fill="white"/>
</svg>
