<svg width="42" height="46" viewBox="0 0 42 46" fill="none" xmlns="http://www.w3.org/2000/svg">
<path d="M27.8501 45.5C24.6957 45.5 21.9599 44.5958 19.6427 42.7873C17.3405 40.9789 15.5615 38.3969 14.3057 35.0412C13.0649 31.6654 12.4444 27.6467 12.4444 22.9849V22.9548C12.4444 18.2729 13.0723 14.2642 14.3281 10.9287C15.5839 7.57301 17.3629 5.00101 19.6651 3.21266C21.9674 1.40422 24.6957 0.5 27.8501 0.5C30.4663 0.5 32.7985 1.18319 34.8466 2.54956C36.8947 3.91594 38.5391 5.79471 39.78 8.18587C41.0208 10.5569 41.7459 13.2897 41.9552 16.3841L41.9776 16.6554H35.3848L35.2951 16.143C35.0409 14.5355 34.5849 13.139 33.9272 11.9535C33.2694 10.7679 32.4247 9.85365 31.3932 9.21065C30.3766 8.54756 29.1956 8.21601 27.8501 8.21601C26.1159 8.21601 24.6135 8.80877 23.3428 9.99431C22.0721 11.1798 21.0854 12.8778 20.3827 15.0881C19.695 17.2783 19.3512 19.8905 19.3512 22.9247V22.9548C19.3512 26.009 19.695 28.6514 20.3827 30.8818C21.0854 33.0921 22.0721 34.8001 23.3428 36.0057C24.6285 37.1912 26.1309 37.784 27.8501 37.784C29.1507 37.784 30.3093 37.4625 31.3259 36.8195C32.3574 36.1765 33.2171 35.2522 33.9047 34.0466C34.5924 32.8208 35.0783 31.3439 35.3623 29.6159L35.4072 29.3145H42L41.9776 29.646C41.7683 32.7204 41.0357 35.4531 39.78 37.8443C38.5391 40.2354 36.8947 42.1142 34.8466 43.4806C32.7985 44.8269 30.4663 45.5 27.8501 45.5Z" fill="#4A9B8E" fill-opacity="0.6"/>
<path d="M24.739 45.5C21.5846 45.5 18.8488 44.5958 16.5316 42.7873C14.2294 40.9789 12.4503 38.3969 11.1946 35.0412C9.95375 31.6654 9.33333 27.6467 9.33333 22.9849V22.9548C9.33333 18.2729 9.96122 14.2642 11.217 10.9287C12.4728 7.57301 14.2518 5.00101 16.554 3.21266C18.8563 1.40422 21.5846 0.5 24.739 0.5C27.3552 0.5 29.6873 1.18319 31.7355 2.54956C33.7836 3.91594 35.428 5.79471 36.6689 8.18587C37.9097 10.5569 38.6347 13.2897 38.844 16.3841L38.8665 16.6554H32.2736L32.1839 16.143C31.9298 14.5355 31.4738 13.139 30.8161 11.9535C30.1583 10.7679 29.3136 9.85365 28.2821 9.21065C27.2655 8.54756 26.0845 8.21601 24.739 8.21601C23.0048 8.21601 21.5024 8.80877 20.2317 9.99431C18.9609 11.1798 17.9743 12.8778 17.2716 15.0881C16.5839 17.2783 16.2401 19.8905 16.2401 22.9247V22.9548C16.2401 26.009 16.5839 28.6514 17.2716 30.8818C17.9743 33.0921 18.9609 34.8001 20.2317 36.0057C21.5173 37.1912 23.0198 37.784 24.739 37.784C26.0396 37.784 27.1982 37.4625 28.2148 36.8195C29.2463 36.1765 30.1059 35.2522 30.7936 34.0466C31.4813 32.8208 31.9672 31.3439 32.2512 29.6159L32.2961 29.3145H38.8889L38.8665 29.646C38.6572 32.7204 37.9246 35.4531 36.6689 37.8443C35.428 40.2354 33.7836 42.1142 31.7355 43.4806C29.6873 44.8269 27.3552 45.5 24.739 45.5Z" fill="#4A9B8E" fill-opacity="0.7"/>
<path d="M21.6279 45.5C18.4735 45.5 15.7377 44.5958 13.4205 42.7873C11.1182 40.9789 9.33923 38.3969 8.08346 35.0412C6.84263 31.6654 6.22222 27.6467 6.22222 22.9849V22.9548C6.22222 18.2729 6.85011 14.2642 8.10588 10.9287C9.36166 7.57301 11.1407 5.00101 13.4429 3.21266C15.7452 1.40422 18.4735 0.5 21.6279 0.5C24.2441 0.5 26.5762 1.18319 28.6243 2.54956C30.6725 3.91594 32.3169 5.79471 33.5577 8.18587C34.7986 10.5569 35.5236 13.2897 35.7329 16.3841L35.7554 16.6554H29.1625L29.0728 16.143C28.8187 14.5355 28.3627 13.139 27.7049 11.9535C27.0472 10.7679 26.2025 9.85365 25.171 9.21065C24.1544 8.54756 22.9734 8.21601 21.6279 8.21601C19.8937 8.21601 18.3913 8.80877 17.1206 9.99431C15.8498 11.1798 14.8631 12.8778 14.1605 15.0881C13.4728 17.2783 13.129 19.8905 13.129 22.9247V22.9548C13.129 26.009 13.4728 28.6514 14.1605 30.8818C14.8631 33.0921 15.8498 34.8001 17.1206 36.0057C18.4062 37.1912 19.9087 37.784 21.6279 37.784C22.9285 37.784 24.0871 37.4625 25.1037 36.8195C26.1352 36.1765 26.9948 35.2522 27.6825 34.0466C28.3702 32.8208 28.8561 31.3439 29.1401 29.6159L29.185 29.3145H35.7778L35.7554 29.646C35.5461 32.7204 34.8135 35.4531 33.5577 37.8443C32.3169 40.2354 30.6725 42.1142 28.6243 43.4806C26.5762 44.8269 24.2441 45.5 21.6279 45.5Z" fill="#4A9B8E" fill-opacity="0.8"/>
<path d="M18.5168 45.5C15.3624 45.5 12.6266 44.5958 10.3094 42.7873C8.00714 40.9789 6.22812 38.3969 4.97235 35.0412C3.73152 31.6654 3.11111 27.6467 3.11111 22.9849V22.9548C3.11111 18.2729 3.739 14.2642 4.99477 10.9287C6.25055 7.57301 8.02956 5.00101 10.3318 3.21266C12.6341 1.40422 15.3624 0.5 18.5168 0.5C21.133 0.5 23.4651 1.18319 25.5132 2.54956C27.5613 3.91594 29.2058 5.79471 30.4466 8.18587C31.6875 10.5569 32.4125 13.2897 32.6218 16.3841L32.6442 16.6554H26.0514L25.9617 16.143C25.7076 14.5355 25.2516 13.139 24.5938 11.9535C23.936 10.7679 23.0914 9.85365 22.0599 9.21065C21.0433 8.54756 19.8622 8.21601 18.5168 8.21601C16.7826 8.21601 15.2802 8.80877 14.0094 9.99431C12.7387 11.1798 11.752 12.8778 11.0494 15.0881C10.3617 17.2783 10.0179 19.8905 10.0179 22.9247V22.9548C10.0179 26.009 10.3617 28.6514 11.0494 30.8818C11.752 33.0921 12.7387 34.8001 14.0094 36.0057C15.2951 37.1912 16.7976 37.784 18.5168 37.784C19.8174 37.784 20.976 37.4625 21.9926 36.8195C23.0241 36.1765 23.8837 35.2522 24.5714 34.0466C25.2591 32.8208 25.745 31.3439 26.029 29.6159L26.0739 29.3145H32.6667L32.6442 29.646C32.4349 32.7204 31.7024 35.4531 30.4466 37.8443C29.2058 40.2354 27.5613 42.1142 25.5132 43.4806C23.4651 44.8269 21.133 45.5 18.5168 45.5Z" fill="#4A9B8E" fill-opacity="0.9"/>
<path d="M15.4057 45.5C12.2513 45.5 9.51548 44.5958 7.19828 42.7873C4.89603 40.9789 3.11701 38.3969 1.86124 35.0412C0.620413 31.6654 0 27.6467 0 22.9849V22.9548C0 18.2729 0.627887 14.2642 1.88366 10.9287C3.13944 7.57301 4.91845 5.00101 7.2207 3.21266C9.52296 1.40422 12.2513 0.5 15.4057 0.5C18.0219 0.5 20.354 1.18319 22.4021 2.54956C24.4502 3.91594 26.0947 5.79471 27.3355 8.18587C28.5764 10.5569 29.3014 13.2897 29.5107 16.3841L29.5331 16.6554H22.9403L22.8506 16.143C22.5965 14.5355 22.1405 13.139 21.4827 11.9535C20.8249 10.7679 19.9803 9.85365 18.9487 9.21065C17.9322 8.54756 16.7511 8.21601 15.4057 8.21601C13.6715 8.21601 12.1691 8.80877 10.8983 9.99431C9.62761 11.1798 8.64093 12.8778 7.93829 15.0881C7.2506 17.2783 6.90676 19.8905 6.90676 22.9247V22.9548C6.90676 26.009 7.2506 28.6514 7.93829 30.8818C8.64093 33.0921 9.62761 34.8001 10.8983 36.0057C12.184 37.1912 13.6865 37.784 15.4057 37.784C16.7063 37.784 17.8649 37.4625 18.8815 36.8195C19.913 36.1765 20.7726 35.2522 21.4603 34.0466C22.148 32.8208 22.6338 31.3439 22.9179 29.6159L22.9627 29.3145H29.5556L29.5331 29.646C29.3238 32.7204 28.5913 35.4531 27.3355 37.8443C26.0947 40.2354 24.4502 42.1142 22.4021 43.4806C20.354 44.8269 18.0219 45.5 15.4057 45.5Z" fill="#4A9B8E"/>
</svg>
