<svg width="1456" height="890" viewBox="0 0 1456 890" fill="none" xmlns="http://www.w3.org/2000/svg">
<g filter="url(#filter0_i_692_1200)">
<path d="M565.612 204.584C565.612 270.973 511.793 324.792 445.404 324.792C421.63 324.792 398.388 331.843 378.62 345.051C358.852 358.26 343.445 377.033 334.347 398.998C325.249 420.964 322.868 445.134 327.506 468.452C332.144 491.769 343.593 513.188 360.404 529.999C377.216 546.811 398.635 558.26 421.953 562.898C445.271 567.536 469.441 565.156 491.405 556.058C513.371 546.96 532.145 531.552 545.354 511.784C558.562 492.016 565.612 468.775 565.612 445H565.588C565.588 356.986 591.688 270.948 640.586 197.767C689.484 124.586 758.985 67.5481 840.299 33.8666C921.613 0.185181 1011.09 -8.62724 1097.41 8.54338C1183.74 25.7141 1263.03 68.097 1325.26 130.332C1387.5 192.568 1429.88 271.861 1447.05 358.184C1464.22 444.507 1455.41 533.983 1421.73 615.297C1388.05 696.612 1331.01 766.112 1257.83 815.01C1184.65 863.908 1098.61 890.007 1010.6 890.007L874.351 890.008V701.453C874.351 626.207 935.35 565.209 1010.6 565.208C1034.37 565.208 1057.61 558.158 1077.38 544.95C1097.15 531.741 1112.56 512.967 1121.65 491.002C1130.75 469.037 1133.13 444.867 1128.49 421.549C1123.86 398.231 1112.41 376.812 1095.6 360C1078.78 343.189 1057.37 331.74 1034.05 327.102C1010.73 322.464 986.559 324.845 964.594 333.943C942.629 343.041 923.855 358.448 910.647 378.216C897.438 397.984 890.388 421.226 890.388 445H890.411C890.411 533.014 864.312 619.052 815.414 692.233C766.516 765.414 697.016 822.452 615.701 856.133C534.387 889.815 444.911 898.627 358.588 881.456C272.265 864.286 192.972 821.903 130.737 759.667C68.5013 697.432 26.1181 618.14 8.94744 531.817C-8.22323 445.494 0.589305 356.018 34.2707 274.704C67.9522 193.389 124.99 123.888 198.171 74.9897C271.352 26.0916 357.39 -0.00740101 445.404 -0.00739996H565.612V204.584Z" fill="#4A9B8E"/>
</g>
<defs>
<filter id="filter0_i_692_1200" x="-47.4988" y="-0.00750732" width="1503.1" height="973.833" filterUnits="userSpaceOnUse" color-interpolation-filters="sRGB">
<feFlood flood-opacity="0" result="BackgroundImageFix"/>
<feBlend mode="normal" in="SourceGraphic" in2="BackgroundImageFix" result="shape"/>
<feColorMatrix in="SourceAlpha" type="matrix" values="0 0 0 0 0 0 0 0 0 0 0 0 0 0 0 0 0 0 127 0" result="hardAlpha"/>
<feOffset dx="-47.8954" dy="83.8169"/>
<feGaussianBlur stdDeviation="101.778"/>
<feComposite in2="hardAlpha" operator="arithmetic" k2="-1" k3="1"/>
<feColorMatrix type="matrix" values="0 0 0 0 1 0 0 0 0 1 0 0 0 0 1 0 0 0 0.87 0"/>
<feBlend mode="lighten" in2="shape" result="effect1_innerShadow_692_1200"/>
</filter>
</defs>
</svg>
