<svg width="1920" height="524" viewBox="0 0 1920 524" fill="none" xmlns="http://www.w3.org/2000/svg">
<mask id="mask0_496_407" style="mask-type:alpha" maskUnits="userSpaceOnUse" x="614" y="22" width="882" height="705">
<path d="M999.724 54.7822C983.433 62.2537 964.898 61.3525 949.382 52.3943C837.912 -11.9629 694.035 30.7306 636.493 148.313C588.57 246.406 619.381 366.545 708.987 429.168C729.449 443.703 751.216 454.093 773.644 460.509C792.742 466.091 808.586 480.138 815.287 498.707C843.489 574.331 898.223 640.775 975.113 682.989C1141.96 774.962 1354.45 715.264 1449.11 549.424C1544.95 381.544 1487.24 167.481 1319.83 70.8277C1218.16 12.1282 1099.57 10.0797 999.724 54.7822Z" fill="url(#paint0_linear_496_407)"/>
</mask>
<g mask="url(#mask0_496_407)">
<g filter="url(#filter0_ii_496_407)">
<path d="M999.724 54.7822C983.433 62.2537 964.898 61.3525 949.382 52.3943C837.912 -11.9629 694.035 30.7306 636.493 148.313C588.57 246.406 619.381 366.545 708.987 429.168C729.449 443.703 751.216 454.093 773.644 460.509C792.742 466.091 808.586 480.138 815.287 498.707C843.489 574.331 898.223 640.775 975.113 682.989C1141.96 774.962 1354.45 715.264 1449.11 549.424C1544.95 381.544 1487.24 167.481 1319.83 70.8277C1218.16 12.1282 1099.57 10.0797 999.724 54.7822Z" fill="#4A9B8E"/>
</g>
</g>
<mask id="mask1_496_407" style="mask-type:alpha" maskUnits="userSpaceOnUse" x="511" y="333" width="558" height="434">
<path d="M601.524 725.586C693.766 792.178 823.623 775.154 895.868 687.366C896.148 686.761 896.871 685.993 897.314 685.831C923.48 653.124 957.97 629.416 997.363 614.958C1019.49 606.836 1039.47 591.469 1052.81 568.993C1079.11 525.692 1071.29 468.798 1034.45 434.104C1010.65 411.698 979.649 402.486 950.05 405.313C918.961 408.186 888.282 399.858 863.694 380.758C862.926 380.035 861.716 379.475 860.786 378.309C765.665 305.241 629.846 322.444 556.777 417.565C482.101 513.779 501.651 653.256 601.524 725.586Z" fill="url(#paint1_linear_496_407)"/>
</mask>
<g mask="url(#mask1_496_407)">
<g filter="url(#filter1_dii_496_407)">
<path d="M601.524 725.586C693.766 792.178 823.623 775.154 895.868 687.366C896.148 686.761 896.871 685.993 897.314 685.831C923.48 653.124 957.97 629.416 997.363 614.958C1019.49 606.836 1039.47 591.469 1052.81 568.993C1079.11 525.692 1071.29 468.798 1034.45 434.104C1010.65 411.698 979.649 402.486 950.05 405.313C918.961 408.186 888.282 399.858 863.694 380.758C862.926 380.035 861.716 379.475 860.786 378.309C765.665 305.241 629.846 322.444 556.777 417.565C482.101 513.779 501.651 653.256 601.524 725.586Z" fill="#4A9B8E"/>
</g>
</g>
<g filter="url(#filter2_ii_496_407)">
<path d="M1116.04 -10.706C1089.87 -19.4145 1056.42 -7.60778 1039.05 -34.5892C1035.42 -39.2973 1032.74 -44.885 1031.26 -50.6232C1029.61 -56.4922 1029.11 -62.8108 1029.99 -69.1493C1030.86 -75.4878 1033.01 -81.3787 1036.12 -86.7844C1039.24 -92.19 1043.24 -96.643 1047.95 -100.274C1082.5 -114.194 1133.17 -109.937 1162.21 -84.4242C1166.01 -79.5853 1168.65 -74.2967 1170.17 -68.2594C1171.82 -62.3904 1172.31 -56.0718 1171.44 -49.7333C1170.56 -43.3948 1168.42 -37.5039 1165.3 -32.0983C1162.31 -26.861 1158.02 -22.3704 1153.31 -18.7395C1148.43 -15.2393 1142.55 -12.5234 1136.17 -11.2654C1129.8 -10.0073 1122.84 -9.73965 1116.04 -10.706Z" fill="#4A9B8E"/>
</g>
<g filter="url(#filter3_dii_496_407)">
<path d="M1318.98 411.945C1367.29 363.637 1367.29 285.315 1318.98 237.007C1270.67 188.7 1192.35 188.7 1144.04 237.007C1095.73 285.315 1095.73 363.637 1144.04 411.945C1192.35 460.252 1270.67 460.252 1318.98 411.945Z" fill="#4A9B8E"/>
</g>
<g filter="url(#filter4_di_496_407)">
<path d="M550.383 340.379C563.283 327.479 563.283 306.563 550.383 293.663C537.482 280.762 516.567 280.762 503.666 293.663C490.766 306.563 490.766 327.479 503.666 340.379C516.567 353.28 537.482 353.28 550.383 340.379Z" fill="#4A9B8E"/>
</g>
<g filter="url(#filter5_diif_496_407)">
<path d="M785.399 97.3635C828.206 92.9867 859.36 54.7367 854.983 11.9297C850.606 -30.8772 812.356 -62.0309 769.549 -57.654C726.742 -53.2772 695.589 -15.0271 699.966 27.7798C704.342 70.5867 742.592 101.74 785.399 97.3635Z" fill="#4A9B8E"/>
</g>
<defs>
<filter id="filter0_ii_496_407" x="585.757" y="22.4377" width="950.226" height="753.202" filterUnits="userSpaceOnUse" color-interpolation-filters="sRGB">
<feFlood flood-opacity="0" result="BackgroundImageFix"/>
<feBlend mode="normal" in="SourceGraphic" in2="BackgroundImageFix" result="shape"/>
<feColorMatrix in="SourceAlpha" type="matrix" values="0 0 0 0 0 0 0 0 0 0 0 0 0 0 0 0 0 0 127 0" result="hardAlpha"/>
<feOffset dx="-28.2614" dy="49.4575"/>
<feGaussianBlur stdDeviation="60.0556"/>
<feComposite in2="hardAlpha" operator="arithmetic" k2="-1" k3="1"/>
<feColorMatrix type="matrix" values="0 0 0 0 1 0 0 0 0 1 0 0 0 0 1 0 0 0 0.87 0"/>
<feBlend mode="lighten" in2="shape" result="effect1_innerShadow_496_407"/>
<feColorMatrix in="SourceAlpha" type="matrix" values="0 0 0 0 0 0 0 0 0 0 0 0 0 0 0 0 0 0 127 0" result="hardAlpha"/>
<feOffset dx="40.579" dy="23.6706"/>
<feGaussianBlur stdDeviation="23.6706"/>
<feComposite in2="hardAlpha" operator="arithmetic" k2="-1" k3="1"/>
<feColorMatrix type="matrix" values="0 0 0 0 0.290196 0 0 0 0 0.607843 0 0 0 0 0.556863 0 0 0 0.9 0"/>
<feBlend mode="multiply" in2="effect1_innerShadow_496_407" result="effect2_innerShadow_496_407"/>
</filter>
<filter id="filter1_dii_496_407" x="483.224" y="333.096" width="625.673" height="500.876" filterUnits="userSpaceOnUse" color-interpolation-filters="sRGB">
<feFlood flood-opacity="0" result="BackgroundImageFix"/>
<feColorMatrix in="SourceAlpha" type="matrix" values="0 0 0 0 0 0 0 0 0 0 0 0 0 0 0 0 0 0 127 0" result="hardAlpha"/>
<feOffset dy="55.44"/>
<feGaussianBlur stdDeviation="6.16"/>
<feComposite in2="hardAlpha" operator="out"/>
<feColorMatrix type="matrix" values="0 0 0 0 0.290196 0 0 0 0 0.607843 0 0 0 0 0.556863 0 0 0 0.16 0"/>
<feBlend mode="multiply" in2="BackgroundImageFix" result="effect1_dropShadow_496_407"/>
<feBlend mode="normal" in="SourceGraphic" in2="effect1_dropShadow_496_407" result="shape"/>
<feColorMatrix in="SourceAlpha" type="matrix" values="0 0 0 0 0 0 0 0 0 0 0 0 0 0 0 0 0 0 127 0" result="hardAlpha"/>
<feOffset dx="-28.2614" dy="49.4575"/>
<feGaussianBlur stdDeviation="60.0556"/>
<feComposite in2="hardAlpha" operator="arithmetic" k2="-1" k3="1"/>
<feColorMatrix type="matrix" values="0 0 0 0 1 0 0 0 0 1 0 0 0 0 1 0 0 0 0.87 0"/>
<feBlend mode="lighten" in2="shape" result="effect2_innerShadow_496_407"/>
<feColorMatrix in="SourceAlpha" type="matrix" values="0 0 0 0 0 0 0 0 0 0 0 0 0 0 0 0 0 0 127 0" result="hardAlpha"/>
<feOffset dx="40.5781" dy="23.6706"/>
<feGaussianBlur stdDeviation="23.6706"/>
<feComposite in2="hardAlpha" operator="arithmetic" k2="-1" k3="1"/>
<feColorMatrix type="matrix" values="0 0 0 0 0.290196 0 0 0 0 0.607843 0 0 0 0 0.556863 0 0 0 0.9 0"/>
<feBlend mode="multiply" in2="effect2_innerShadow_496_407" result="effect3_innerShadow_496_407"/>
</filter>
<filter id="filter2_ii_496_407" x="993.085" y="-108.104" width="231.15" height="161.816" filterUnits="userSpaceOnUse" color-interpolation-filters="sRGB">
<feFlood flood-opacity="0" result="BackgroundImageFix"/>
<feBlend mode="normal" in="SourceGraphic" in2="BackgroundImageFix" result="shape"/>
<feColorMatrix in="SourceAlpha" type="matrix" values="0 0 0 0 0 0 0 0 0 0 0 0 0 0 0 0 0 0 127 0" result="hardAlpha"/>
<feOffset dx="-36.4768" dy="63.8343"/>
<feGaussianBlur stdDeviation="77.5131"/>
<feComposite in2="hardAlpha" operator="arithmetic" k2="-1" k3="1"/>
<feColorMatrix type="matrix" values="0 0 0 0 1 0 0 0 0 1 0 0 0 0 1 0 0 0 0.87 0"/>
<feBlend mode="lighten" in2="shape" result="effect1_innerShadow_496_407"/>
<feColorMatrix in="SourceAlpha" type="matrix" values="0 0 0 0 0 0 0 0 0 0 0 0 0 0 0 0 0 0 127 0" result="hardAlpha"/>
<feOffset dx="52.3738" dy="30.5514"/>
<feGaussianBlur stdDeviation="30.5514"/>
<feComposite in2="hardAlpha" operator="arithmetic" k2="-1" k3="1"/>
<feColorMatrix type="matrix" values="0 0 0 0 0.290196 0 0 0 0 0.607843 0 0 0 0 0.556863 0 0 0 0.9 0"/>
<feBlend mode="multiply" in2="effect1_innerShadow_496_407" result="effect2_innerShadow_496_407"/>
</filter>
<filter id="filter3_dii_496_407" x="1079.55" y="200.777" width="316.238" height="315.158" filterUnits="userSpaceOnUse" color-interpolation-filters="sRGB">
<feFlood flood-opacity="0" result="BackgroundImageFix"/>
<feColorMatrix in="SourceAlpha" type="matrix" values="0 0 0 0 0 0 0 0 0 0 0 0 0 0 0 0 0 0 127 0" result="hardAlpha"/>
<feOffset dy="55.44"/>
<feGaussianBlur stdDeviation="6.16"/>
<feComposite in2="hardAlpha" operator="out"/>
<feColorMatrix type="matrix" values="0 0 0 0 0.290196 0 0 0 0 0.607843 0 0 0 0 0.556863 0 0 0 0.16 0"/>
<feBlend mode="multiply" in2="BackgroundImageFix" result="effect1_dropShadow_496_407"/>
<feBlend mode="normal" in="SourceGraphic" in2="effect1_dropShadow_496_407" result="shape"/>
<feColorMatrix in="SourceAlpha" type="matrix" values="0 0 0 0 0 0 0 0 0 0 0 0 0 0 0 0 0 0 127 0" result="hardAlpha"/>
<feOffset dx="-28.2614" dy="49.4575"/>
<feGaussianBlur stdDeviation="60.0556"/>
<feComposite in2="hardAlpha" operator="arithmetic" k2="-1" k3="1"/>
<feColorMatrix type="matrix" values="0 0 0 0 1 0 0 0 0 1 0 0 0 0 1 0 0 0 0.87 0"/>
<feBlend mode="lighten" in2="shape" result="effect2_innerShadow_496_407"/>
<feColorMatrix in="SourceAlpha" type="matrix" values="0 0 0 0 0 0 0 0 0 0 0 0 0 0 0 0 0 0 127 0" result="hardAlpha"/>
<feOffset dx="40.5781" dy="23.6706"/>
<feGaussianBlur stdDeviation="23.6706"/>
<feComposite in2="hardAlpha" operator="arithmetic" k2="-1" k3="1"/>
<feColorMatrix type="matrix" values="0 0 0 0 0.290196 0 0 0 0 0.607843 0 0 0 0 0.556863 0 0 0 0.9 0"/>
<feBlend mode="multiply" in2="effect2_innerShadow_496_407" result="effect3_innerShadow_496_407"/>
</filter>
<filter id="filter4_di_496_407" x="486.444" y="283.988" width="76.9043" height="84.162" filterUnits="userSpaceOnUse" color-interpolation-filters="sRGB">
<feFlood flood-opacity="0" result="BackgroundImageFix"/>
<feColorMatrix in="SourceAlpha" type="matrix" values="0 0 0 0 0 0 0 0 0 0 0 0 0 0 0 0 0 0 127 0" result="hardAlpha"/>
<feOffset dy="14.8051"/>
<feGaussianBlur stdDeviation="1.64501"/>
<feComposite in2="hardAlpha" operator="out"/>
<feColorMatrix type="matrix" values="0 0 0 0 0.290196 0 0 0 0 0.607843 0 0 0 0 0.556863 0 0 0 0.16 0"/>
<feBlend mode="multiply" in2="BackgroundImageFix" result="effect1_dropShadow_496_407"/>
<feBlend mode="normal" in="SourceGraphic" in2="effect1_dropShadow_496_407" result="shape"/>
<feColorMatrix in="SourceAlpha" type="matrix" values="0 0 0 0 0 0 0 0 0 0 0 0 0 0 0 0 0 0 127 0" result="hardAlpha"/>
<feOffset dx="-7.54714" dy="13.2075"/>
<feGaussianBlur stdDeviation="16.0377"/>
<feComposite in2="hardAlpha" operator="arithmetic" k2="-1" k3="1"/>
<feColorMatrix type="matrix" values="0 0 0 0 1 0 0 0 0 1 0 0 0 0 1 0 0 0 0.87 0"/>
<feBlend mode="lighten" in2="shape" result="effect2_innerShadow_496_407"/>
</filter>
<filter id="filter5_diif_496_407" x="671.294" y="-77.4528" width="224.677" height="242.986" filterUnits="userSpaceOnUse" color-interpolation-filters="sRGB">
<feFlood flood-opacity="0" result="BackgroundImageFix"/>
<feColorMatrix in="SourceAlpha" type="matrix" values="0 0 0 0 0 0 0 0 0 0 0 0 0 0 0 0 0 0 127 0" result="hardAlpha"/>
<feOffset dy="55.44"/>
<feGaussianBlur stdDeviation="6.16"/>
<feComposite in2="hardAlpha" operator="out"/>
<feColorMatrix type="matrix" values="0 0 0 0 0.290196 0 0 0 0 0.607843 0 0 0 0 0.556863 0 0 0 0.16 0"/>
<feBlend mode="multiply" in2="BackgroundImageFix" result="effect1_dropShadow_496_407"/>
<feBlend mode="normal" in="SourceGraphic" in2="effect1_dropShadow_496_407" result="shape"/>
<feColorMatrix in="SourceAlpha" type="matrix" values="0 0 0 0 0 0 0 0 0 0 0 0 0 0 0 0 0 0 127 0" result="hardAlpha"/>
<feOffset dx="-28.2614" dy="49.4575"/>
<feGaussianBlur stdDeviation="60.0556"/>
<feComposite in2="hardAlpha" operator="arithmetic" k2="-1" k3="1"/>
<feColorMatrix type="matrix" values="0 0 0 0 1 0 0 0 0 1 0 0 0 0 1 0 0 0 0.87 0"/>
<feBlend mode="lighten" in2="shape" result="effect2_innerShadow_496_407"/>
<feColorMatrix in="SourceAlpha" type="matrix" values="0 0 0 0 0 0 0 0 0 0 0 0 0 0 0 0 0 0 127 0" result="hardAlpha"/>
<feOffset dx="40.5781" dy="23.6706"/>
<feGaussianBlur stdDeviation="23.6706"/>
<feComposite in2="hardAlpha" operator="arithmetic" k2="-1" k3="1"/>
<feColorMatrix type="matrix" values="0 0 0 0 0.290196 0 0 0 0 0.607843 0 0 0 0 0.556863 0 0 0 0.9 0"/>
<feBlend mode="multiply" in2="effect2_innerShadow_496_407" result="effect3_innerShadow_496_407"/>
<feGaussianBlur stdDeviation="9.6943" result="effect4_foregroundBlur_496_407"/>
</filter>
<linearGradient id="paint0_linear_496_407" x1="1516.64" y1="590.093" x2="945.287" y2="289.382" gradientUnits="userSpaceOnUse">
<stop offset="0.515679" stop-opacity="0"/>
<stop offset="1"/>
</linearGradient>
<linearGradient id="paint1_linear_496_407" x1="353.104" y1="564.247" x2="829.296" y2="463.84" gradientUnits="userSpaceOnUse">
<stop offset="0.119214" stop-opacity="0"/>
<stop offset="1"/>
</linearGradient>
</defs>
</svg>
